<svg width="95.000000" height="95.000000" viewBox="0 0 95 95" fill="none" xmlns="http://www.w3.org/2000/svg" xmlns:xlink="http://www.w3.org/1999/xlink">
	<desc>
			Created with Pixso.
	</desc>
	<defs/>
	<circle id="Ellipse 28" cx="47.500000" cy="47.500000" r="47.500000" fill="#19191A" fill-opacity="1.000000"/>
	<rect id="Rectangle 34" x="19.949951" y="19.950012" width="55.099998" height="55.099998" stroke="#FF1818" stroke-opacity="1.000000" stroke-width="1.900000"/>
	<path id="STAGE" d="M31.02 51.08Q30.88 50.96 30.71 50.84L30.34 51.69Q30.58 51.85 30.98 52.07Q31.73 52.48 32.89 52.48Q33.64 52.48 34.19 52.15Q34.41 52.01 34.6 51.82Q34.89 51.53 35.05 51.18Q35.26 50.74 35.26 50.2Q35.26 49.54 34.97 49.05Q34.84 48.82 34.65 48.63Q34.46 48.44 34.26 48.3Q34.06 48.17 33.81 48.03L32.86 47.55Q32.53 47.4 32.34 47.27Q31.87 46.95 31.72 46.56Q31.63 46.33 31.63 46.06Q31.63 45.55 31.86 45.2Q31.9 45.14 31.95 45.09Q32.05 44.97 32.17 44.89Q32.45 44.71 32.85 44.71Q33.31 44.71 33.72 44.85Q34.12 44.99 34.47 45.26L34.7 44.43Q34.41 44.2 33.9 44.04Q33.4 43.87 32.77 43.87Q32.08 43.87 31.57 44.17Q31.34 44.31 31.15 44.51Q30.8 44.86 30.65 45.29Q30.53 45.62 30.53 46Q30.53 46.85 30.85 47.39Q30.99 47.63 31.28 47.91Q31.57 48.2 32.13 48.5L33.12 48.99Q33.36 49.13 33.53 49.25Q33.95 49.56 34.09 49.92Q34.16 50.12 34.16 50.48Q34.16 50.84 33.88 51.21Q33.88 51.21 33.87 51.21Q33.54 51.63 32.66 51.63Q32.14 51.63 31.72 51.47Q31.64 51.44 31.56 51.4Q31.45 51.35 31.34 51.29Q31.16 51.19 31.02 51.08ZM51.8 45.93Q51.27 46.9 51.27 48.17Q51.27 49.68 51.97 50.74Q52.16 51.03 52.4 51.29Q52.75 51.66 53.17 51.91Q54.11 52.48 55.39 52.48Q57.19 52.48 58.46 51.65Q58.49 51.63 58.52 51.61L58.53 48.35L55.65 48.36L55.65 49.2L57.44 49.2L57.44 51.18Q56.43 51.63 55.45 51.63L55.38 51.63Q54.68 51.63 54.13 51.35Q53.81 51.18 53.54 50.92Q53.27 50.67 53.06 50.37Q52.43 49.45 52.43 48.1Q52.43 47.5 52.65 46.88Q52.94 46.05 53.51 45.53Q53.85 45.21 54.29 45.01Q54.35 44.98 54.42 44.95Q54.98 44.72 55.65 44.72Q55.71 44.72 55.77 44.72Q57.02 44.76 58.25 45.55L58.67 44.75Q58.29 44.5 58.04 44.37Q57.8 44.24 57.28 44.06Q56.76 43.87 55.62 43.87Q54.29 43.87 53.31 44.42Q52.74 44.73 52.32 45.18Q52.02 45.52 51.8 45.93ZM42.63 43.98L36.18 43.98L36.18 44.82L38.86 44.82L38.86 52.37L39.95 52.37L39.95 44.82L42.63 44.82L42.63 43.98ZM44.39 52.37L45.29 49.93L48.6 49.93L49.5 52.37L50.57 52.37L47.43 43.98L46.52 43.98L43.37 52.37L44.39 52.37ZM61.81 51.53L61.81 48.49L64.33 48.49L64.33 47.64L61.81 47.64L61.81 44.82L65.51 44.82L65.51 43.98L60.72 43.98L60.72 52.37L65.51 52.37L65.51 51.53L61.81 51.53ZM46.94 45.47L48.28 49.09L45.6 49.09L46.94 45.47Z" fill="#FFFFFF" fill-opacity="1.000000" fill-rule="evenodd"/>
	<path id="STAGE" d="M31.02 34.93Q30.88 34.81 30.71 34.69L30.34 35.54Q30.58 35.7 30.98 35.92Q31.73 36.33 32.89 36.33Q33.64 36.33 34.19 36Q34.41 35.86 34.6 35.67Q34.89 35.38 35.05 35.03Q35.26 34.59 35.26 34.05Q35.26 33.39 34.97 32.9Q34.84 32.67 34.65 32.48Q34.46 32.29 34.26 32.15Q34.06 32.02 33.81 31.88L32.86 31.4Q32.53 31.25 32.34 31.12Q31.87 30.8 31.72 30.41Q31.63 30.18 31.63 29.91Q31.63 29.4 31.86 29.05Q31.9 28.99 31.95 28.94Q32.05 28.82 32.17 28.74Q32.45 28.56 32.85 28.56Q33.31 28.56 33.72 28.7Q34.12 28.84 34.47 29.11L34.7 28.28Q34.41 28.05 33.9 27.89Q33.4 27.72 32.77 27.72Q32.08 27.72 31.57 28.02Q31.34 28.16 31.15 28.36Q30.8 28.71 30.65 29.14Q30.53 29.47 30.53 29.85Q30.53 30.7 30.85 31.24Q30.99 31.48 31.28 31.76Q31.57 32.05 32.13 32.35L33.12 32.84Q33.36 32.98 33.53 33.1Q33.95 33.41 34.09 33.77Q34.16 33.97 34.16 34.33Q34.16 34.69 33.88 35.06Q33.88 35.06 33.87 35.06Q33.54 35.48 32.66 35.48Q32.14 35.48 31.72 35.32Q31.64 35.29 31.56 35.25Q31.45 35.2 31.34 35.14Q31.16 35.04 31.02 34.93ZM51.8 29.78Q51.27 30.75 51.27 32.02Q51.27 33.53 51.97 34.59Q52.16 34.88 52.4 35.14Q52.75 35.51 53.17 35.76Q54.11 36.33 55.39 36.33Q57.19 36.33 58.46 35.5Q58.49 35.48 58.52 35.46L58.53 32.2L55.65 32.21L55.65 33.05L57.44 33.05L57.44 35.03Q56.43 35.48 55.45 35.48L55.38 35.48Q54.68 35.48 54.13 35.2Q53.81 35.03 53.54 34.77Q53.27 34.52 53.06 34.22Q52.43 33.3 52.43 31.95Q52.43 31.35 52.65 30.73Q52.94 29.9 53.51 29.38Q53.85 29.06 54.29 28.86Q54.35 28.83 54.42 28.8Q54.98 28.57 55.65 28.57Q55.71 28.57 55.77 28.57Q57.02 28.61 58.25 29.4L58.67 28.6Q58.29 28.35 58.04 28.22Q57.8 28.09 57.28 27.91Q56.76 27.72 55.62 27.72Q54.29 27.72 53.31 28.27Q52.74 28.58 52.32 29.03Q52.02 29.37 51.8 29.78ZM42.63 27.83L36.18 27.83L36.18 28.67L38.86 28.67L38.86 36.22L39.95 36.22L39.95 28.67L42.63 28.67L42.63 27.83ZM44.39 36.22L45.29 33.78L48.6 33.78L49.5 36.22L50.57 36.22L47.43 27.83L46.52 27.83L43.37 36.22L44.39 36.22ZM61.81 35.38L61.81 32.34L64.33 32.34L64.33 31.49L61.81 31.49L61.81 28.67L65.51 28.67L65.51 27.83L60.72 27.83L60.72 36.22L65.51 36.22L65.51 35.38L61.81 35.38ZM46.94 29.32L48.28 32.94L45.6 32.94L46.94 29.32Z" fill="#FFFFFF" fill-opacity="1.000000" fill-rule="evenodd"/>
	<path id="STAGE" d="M31.02 67.23Q30.88 67.12 30.71 66.99L30.34 67.84Q30.58 68 30.98 68.22Q31.73 68.63 32.89 68.63Q33.64 68.63 34.19 68.3Q34.41 68.16 34.6 67.97Q34.89 67.68 35.05 67.33Q35.26 66.89 35.26 66.35Q35.26 65.69 34.97 65.2Q34.84 64.97 34.65 64.78Q34.46 64.59 34.26 64.45Q34.06 64.32 33.81 64.18L32.86 63.7Q32.53 63.55 32.34 63.42Q31.87 63.1 31.72 62.71Q31.63 62.48 31.63 62.21Q31.63 61.7 31.86 61.35Q31.9 61.29 31.95 61.24Q32.05 61.12 32.17 61.04Q32.45 60.86 32.85 60.86Q33.31 60.86 33.72 61Q34.12 61.14 34.47 61.41L34.7 60.58Q34.41 60.35 33.9 60.19Q33.4 60.02 32.77 60.02Q32.08 60.02 31.57 60.32Q31.34 60.46 31.15 60.66Q30.8 61.01 30.65 61.44Q30.53 61.77 30.53 62.15Q30.53 63 30.85 63.54Q30.99 63.78 31.28 64.06Q31.57 64.35 32.13 64.65L33.12 65.14Q33.36 65.28 33.53 65.4Q33.95 65.71 34.09 66.07Q34.16 66.27 34.16 66.63Q34.16 66.99 33.88 67.36Q33.88 67.36 33.87 67.36Q33.54 67.78 32.66 67.78Q32.14 67.78 31.72 67.62Q31.64 67.59 31.56 67.55Q31.45 67.5 31.34 67.44Q31.16 67.34 31.02 67.23ZM51.8 62.08Q51.27 63.05 51.27 64.32Q51.27 65.83 51.97 66.89Q52.16 67.18 52.4 67.44Q52.75 67.81 53.17 68.06Q54.11 68.63 55.39 68.63Q57.19 68.63 58.46 67.8Q58.49 67.78 58.52 67.76L58.53 64.5L55.65 64.51L55.65 65.35L57.44 65.35L57.44 67.33Q56.43 67.78 55.45 67.78L55.38 67.78Q54.68 67.78 54.13 67.5Q53.81 67.33 53.54 67.07Q53.27 66.82 53.06 66.52Q52.43 65.6 52.43 64.25Q52.43 63.65 52.65 63.03Q52.94 62.2 53.51 61.68Q53.85 61.36 54.29 61.16Q54.35 61.13 54.42 61.1Q54.98 60.87 55.65 60.87Q55.71 60.87 55.77 60.87Q57.02 60.91 58.25 61.7L58.67 60.9Q58.29 60.65 58.04 60.52Q57.8 60.39 57.28 60.21Q56.76 60.02 55.62 60.02Q54.29 60.02 53.31 60.57Q52.74 60.88 52.32 61.33Q52.02 61.67 51.8 62.08ZM42.63 60.13L36.18 60.13L36.18 60.97L38.86 60.97L38.86 68.52L39.95 68.52L39.95 60.97L42.63 60.97L42.63 60.13ZM44.39 68.52L45.29 66.08L48.6 66.08L49.5 68.52L50.57 68.52L47.43 60.13L46.52 60.13L43.37 68.52L44.39 68.52ZM61.81 67.68L61.81 64.64L64.33 64.64L64.33 63.79L61.81 63.79L61.81 60.97L65.51 60.97L65.51 60.13L60.72 60.13L60.72 68.52L65.51 68.52L65.51 67.68L61.81 67.68ZM46.94 61.62L48.28 65.24L45.6 65.24L46.94 61.62Z" fill="#FFFFFF" fill-opacity="1.000000" fill-rule="evenodd"/>
</svg>
