<svg width="22.000000" height="22.000000" viewBox="0 0 22 22" fill="none" xmlns="http://www.w3.org/2000/svg" xmlns:xlink="http://www.w3.org/1999/xlink">
	<desc>
			Created with Pixso.
	</desc>
	<defs>
		<clipPath id="clip2_1155">
			<rect id="user 2" rx="0.000000" width="20.999914" height="21.000000" transform="translate(0.500000 0.500000)" fill="white" fill-opacity="0"/>
		</clipPath>
	</defs>
	<rect id="user 2" rx="0.000000" width="20.999914" height="21.000000" transform="translate(0.500000 0.500000)" fill="#FFFFFF" fill-opacity="0"/>
	<g clip-path="url(#clip2_1155)">
		<path id="Vector" d="M10.84 10.59C12.29 10.59 13.55 10.07 14.59 9.04C15.62 8.01 16.14 6.75 16.14 5.29C16.14 3.84 15.62 2.58 14.58 1.55C13.55 0.52 12.29 0 10.84 0C9.38 0 8.12 0.52 7.09 1.55C6.06 2.58 5.54 3.84 5.54 5.29C5.54 6.75 6.06 8.01 7.09 9.04C8.12 10.07 9.38 10.59 10.84 10.59Z" fill="#FFFFFF" fill-opacity="1.000000" fill-rule="nonzero"/>
		<path id="Vector" d="M20.11 16.91C20.08 16.48 20.02 16.02 19.93 15.52C19.84 15.02 19.73 14.55 19.59 14.12C19.45 13.68 19.25 13.24 19.02 12.82C18.77 12.38 18.48 12 18.15 11.69C17.81 11.36 17.39 11.1 16.9 10.91C16.42 10.72 15.89 10.62 15.32 10.62C15.09 10.62 14.87 10.71 14.45 10.99C14.2 11.16 13.89 11.35 13.56 11.57C13.27 11.75 12.88 11.92 12.4 12.08C11.93 12.23 11.45 12.31 10.98 12.31C10.51 12.31 10.03 12.23 9.56 12.08C9.07 11.92 8.68 11.75 8.4 11.57C8.06 11.35 7.76 11.16 7.5 10.99C7.08 10.71 6.86 10.62 6.64 10.62C6.07 10.62 5.53 10.72 5.05 10.91C4.57 11.1 4.15 11.36 3.8 11.69C3.48 12 3.19 12.38 2.94 12.82C2.7 13.24 2.51 13.68 2.36 14.12C2.23 14.55 2.11 15.02 2.02 15.52C1.93 16.01 1.87 16.48 1.84 16.91C1.81 17.33 1.8 17.77 1.8 18.21C1.8 19.36 2.16 20.29 2.88 20.98C3.6 21.65 4.54 22 5.68 22L16.27 22C17.42 22 18.36 21.65 19.07 20.98C19.79 20.29 20.15 19.36 20.15 18.21C20.15 17.77 20.14 17.33 20.11 16.91Z" fill="#FFFFFF" fill-opacity="1.000000" fill-rule="nonzero"/>
	</g>
</svg>
