<svg width="27.450989" height="27.377869" viewBox="0 0 27.451 27.3779" fill="none" xmlns="http://www.w3.org/2000/svg" xmlns:xlink="http://www.w3.org/1999/xlink">
	<desc>
			Created with Pixso.
	</desc>
	<defs/>
	<path id="Vector" d="M19.12 16.24C22.48 11.6 21.36 5.17 16.61 1.89C11.86 -1.4 5.29 -0.3 1.93 4.34C-1.43 8.98 -0.31 15.41 4.44 18.69C7.83 21.04 12.31 21.22 15.88 19.16L23.64 26.7C24.48 27.57 25.88 27.6 26.76 26.78C27.64 25.96 27.68 24.6 26.84 23.73C26.81 23.71 26.79 23.68 26.76 23.66L19.12 16.24ZM10.52 16.94C6.77 16.95 3.73 13.97 3.73 10.31C3.72 6.64 6.76 3.67 10.51 3.67C14.26 3.66 17.3 6.63 17.31 10.29C17.31 13.96 14.28 16.94 10.52 16.94C10.52 16.94 10.52 16.94 10.52 16.94Z" fill="#FFFFFF" fill-opacity="1.000000" fill-rule="nonzero"/>
</svg>
