<svg width="19.958008" height="20.000031" viewBox="0 0 19.958 20" fill="none" xmlns="http://www.w3.org/2000/svg" xmlns:xlink="http://www.w3.org/1999/xlink">
	<desc>
			Created with Pixso.
	</desc>
	<defs/>
	<path id="Vector" d="M19.43 14.67L16.64 11.88C15.64 10.89 13.95 11.28 13.55 12.58C13.25 13.48 12.25 13.98 11.36 13.78C9.36 13.28 6.67 10.69 6.17 8.59C5.87 7.7 6.47 6.7 7.37 6.4C8.66 6 9.06 4.31 8.07 3.31L5.28 0.52C4.48 -0.18 3.28 -0.18 2.58 0.52L0.69 2.41C-1.2 4.41 0.89 9.69 5.57 14.37C10.26 19.06 15.54 21.25 17.54 19.26L19.43 17.36C20.13 16.57 20.13 15.37 19.43 14.67Z" fill="#002C6A" fill-opacity="1.000000" fill-rule="nonzero"/>
</svg>
