<svg width="20.000000" height="11.921875" viewBox="0 0 20 11.9219" fill="none" xmlns="http://www.w3.org/2000/svg" xmlns:xlink="http://www.w3.org/1999/xlink">
	<desc>
			Created with Pixso.
	</desc>
	<defs/>
	<path id="Vector" d="M10 0C6.17 0 2.71 2.09 0.15 5.48C-0.06 5.76 -0.06 6.15 0.15 6.43C2.71 9.83 6.17 11.92 10 11.92C13.82 11.92 17.28 9.83 19.84 6.43C20.05 6.15 20.05 5.76 19.84 5.49C17.28 2.09 13.82 0 10 0ZM10.27 10.15C7.73 10.31 5.64 8.22 5.8 5.68C5.93 3.59 7.63 1.89 9.72 1.76C12.26 1.6 14.35 3.69 14.19 6.23C14.06 8.32 12.36 10.02 10.27 10.15ZM10.14 8.21C8.78 8.3 7.65 7.18 7.74 5.81C7.81 4.68 8.72 3.77 9.85 3.69C11.22 3.61 12.35 4.73 12.26 6.1C12.18 7.23 11.27 8.14 10.14 8.21Z" fill="#B3C0D2" fill-opacity="1.000000" fill-rule="nonzero"/>
</svg>
