<svg width="80.000000" height="80.000000" viewBox="0 0 80 80" fill="none" xmlns="http://www.w3.org/2000/svg" xmlns:xlink="http://www.w3.org/1999/xlink">
	<desc>
			Created with Pixso.
	</desc>
	<defs>
		<clipPath id="clip35_123">
			<rect id="like 1" rx="0.000000" width="79.000000" height="79.000000" transform="translate(0.500000 0.500000)" fill="white" fill-opacity="0"/>
		</clipPath>
	</defs>
	<rect id="like 1" rx="0.000000" width="79.000000" height="79.000000" transform="translate(0.500000 0.500000)" fill="#FFFFFF" fill-opacity="0"/>
	<g clip-path="url(#clip35_123)">
		<path id="Vector" d="M76.54 54.38C78.18 52.29 78.97 50.05 78.87 47.74C78.77 45.2 77.63 43.21 76.7 41.99C77.78 39.28 78.2 35.01 74.57 31.7C71.91 29.27 67.39 28.18 61.14 28.49C56.74 28.69 53.06 29.51 52.91 29.54L52.89 29.54C52.05 29.69 51.17 29.87 50.26 30.07C50.2 29 50.38 26.34 52.35 20.35C54.7 13.23 54.56 7.77 51.92 4.13C49.14 0.3 44.71 0 43.4 0C42.15 0 40.99 0.51 40.17 1.47C38.32 3.63 38.54 7.61 38.77 9.45C36.56 15.37 30.37 29.89 25.14 33.92C25.03 33.99 24.95 34.07 24.87 34.16C23.33 35.78 22.29 37.54 21.59 39.07C20.6 38.54 19.48 38.24 18.28 38.24L8.07 38.24C4.22 38.24 1.11 41.37 1.11 45.2L1.11 72.38C1.11 76.23 4.24 79.34 8.07 79.34L18.28 79.34C19.77 79.34 21.15 78.87 22.29 78.07L26.22 78.54C26.82 78.62 37.53 79.98 48.52 79.76C50.51 79.91 52.39 80 54.13 80C57.12 80 59.73 79.76 61.91 79.29C67.03 78.21 70.52 76.03 72.3 72.83C73.65 70.39 73.65 67.97 73.43 66.43C76.76 63.42 77.35 60.09 77.23 57.74C77.16 56.39 76.86 55.24 76.54 54.38ZM8.07 74.83C6.72 74.83 5.63 73.72 5.63 72.38L5.63 45.18C5.63 43.83 6.73 42.74 8.07 42.74L18.28 42.74C19.63 42.74 20.72 43.84 20.72 45.18L20.72 72.37C20.72 73.72 19.61 74.81 18.28 74.81L8.07 74.81L8.07 74.83ZM72.26 52.42C71.56 53.16 71.43 54.28 71.96 55.15C71.96 55.17 72.65 56.34 72.73 57.95C72.85 60.14 71.79 62.08 69.59 63.73C68.8 64.34 68.48 65.37 68.82 66.31C68.82 66.33 69.53 68.54 68.36 70.63C67.24 72.63 64.75 74.07 60.97 74.88C57.94 75.53 53.83 75.65 48.77 75.24C48.71 75.24 48.62 75.24 48.54 75.24C37.78 75.48 26.91 74.07 26.79 74.06L26.77 74.06L25.08 73.86C25.19 73.39 25.24 72.89 25.24 72.38L25.24 45.18C25.24 44.46 25.12 43.76 24.92 43.11C25.22 41.99 26.06 39.49 28.03 37.37C35.54 31.41 42.89 11.32 43.2 10.45C43.34 10.1 43.37 9.71 43.3 9.33C43.02 7.46 43.12 5.16 43.52 4.48C44.41 4.5 46.8 4.75 48.24 6.74C49.94 9.1 49.88 13.31 48.04 18.9C45.23 27.41 44.99 31.9 47.22 33.87C48.32 34.86 49.79 34.91 50.86 34.52C51.89 34.29 52.86 34.09 53.78 33.94C53.84 33.92 53.93 33.91 53.99 33.89C59.13 32.77 68.33 32.08 71.53 34.99C74.24 37.47 72.31 40.75 72.09 41.1C71.48 42.04 71.66 43.26 72.5 44.01C72.51 44.03 74.27 45.68 74.35 47.91C74.42 49.4 73.72 50.92 72.26 52.42Z" fill="#002C6A" fill-opacity="1.000000" fill-rule="nonzero"/>
	</g>
</svg>
