<svg width="98.435669" height="104.999756" viewBox="0 0 98.4357 105" fill="none" xmlns="http://www.w3.org/2000/svg" xmlns:xlink="http://www.w3.org/1999/xlink">
	<desc>
			Created with Pixso.
	</desc>
	<defs/>
	<path id="Vector" d="M49.21 0C22.01 0 0 22.01 0 49.21C0 61.14 4.28 72.57 12.09 81.53L12.09 101.92C12.09 104.66 15.42 106.02 17.35 104.09L27.87 93.57C60.22 109.14 98.43 85.74 98.43 49.21C98.43 22.01 76.42 0 49.21 0L49.21 0ZM28.74 87.11C27.54 86.46 26.06 86.68 25.1 87.64L18.25 94.49L18.25 80.36C18.25 79.59 17.96 78.85 17.44 78.28C10.16 70.33 6.15 60 6.15 49.21C6.15 25.47 25.47 6.15 49.21 6.15C72.96 6.15 92.28 25.47 92.28 49.21C92.28 81.89 57.19 102.52 28.74 87.11Z" fill="#2C830E" fill-opacity="1.000000" fill-rule="nonzero"/>
	<path id="Vector" d="M49.21 21.71C39.03 21.71 30.75 30 30.75 40.18C30.75 41.88 32.12 43.26 33.82 43.26C35.52 43.26 36.9 41.88 36.9 40.18C36.9 33.39 42.42 27.86 49.21 27.86C56 27.86 61.53 33.39 61.53 40.18C61.53 46.97 56 52.49 49.21 52.49C47.51 52.49 46.14 53.87 46.14 55.57L46.14 64.79C46.14 66.49 47.51 67.86 49.21 67.86C50.91 67.86 52.29 66.49 52.29 64.79L52.29 58.39C61.01 56.92 67.68 49.31 67.68 40.18C67.68 30 59.4 21.71 49.21 21.71Z" fill="#2C830E" fill-opacity="1.000000" fill-rule="nonzero"/>
	<path id="Vector" d="M52.28 77.09C52.28 78.79 50.91 80.16 49.21 80.16C47.52 80.16 46.15 78.79 46.15 77.09C46.15 75.4 47.52 74.03 49.21 74.03C50.91 74.03 52.28 75.4 52.28 77.09Z" fill="#2C830E" fill-opacity="1.000000" fill-rule="evenodd"/>
</svg>
