<svg width="85.000000" height="85.000000" viewBox="0 0 85 85" fill="none" xmlns="http://www.w3.org/2000/svg" xmlns:xlink="http://www.w3.org/1999/xlink">
	<desc>
			Created with Pixso.
	</desc>
	<defs/>
	<path id="Vector" d="M84.98 20.96C84.88 20.04 84.31 19.23 83.46 18.84L43.62 0.24C42.91 -0.09 42.08 -0.09 41.37 0.24L1.53 18.84C0.68 19.23 0.11 20.04 0.01 20.96C0.01 20.98 0 21.23 0 21.25L0 66.4C0 67.49 0.66 68.46 1.66 68.87L41.51 84.8C41.83 84.93 42.16 85 42.5 85C42.83 85 43.16 84.93 43.48 84.8L83.33 68.87C84.33 68.46 85 67.49 85 66.4L85 21.25C85 21.23 84.98 20.98 84.98 20.96ZM42.5 5.58L75.66 21.06L62.89 26.17L29.1 11.83L42.5 5.58ZM22.62 14.86L55.89 28.97L42.5 34.32L9.33 21.06L22.62 14.86ZM5.31 25.17L39.84 38.98L39.84 78.42L5.31 64.6L5.31 25.17ZM45.15 78.42L45.15 38.98L79.68 25.17L79.68 64.6L45.15 78.42Z" fill="#AD0808" fill-opacity="1.000000" fill-rule="nonzero"/>
</svg>
