<svg width="34.990540" height="35.000000" viewBox="0 0 34.9905 35" fill="none" xmlns="http://www.w3.org/2000/svg" xmlns:xlink="http://www.w3.org/1999/xlink">
	<desc>
			Created with Pixso.
	</desc>
	<defs>
		<clipPath id="clip72_3741">
			<rect id="instagram 2" rx="0.000000" width="33.990540" height="34.000000" transform="translate(0.500000 0.500000)" fill="white" fill-opacity="0"/>
		</clipPath>
		<linearGradient x1="2.253967" y1="32.764305" x2="32.746262" y2="2.267542" id="paint_linear_72_3742_0" gradientUnits="userSpaceOnUse">
			<stop stop-color="#FFDD55"/>
			<stop offset="0.500000" stop-color="#FF543E"/>
			<stop offset="1.000000" stop-color="#C837AB"/>
		</linearGradient>
	</defs>
	<rect id="instagram 2" rx="0.000000" width="33.990540" height="34.000000" transform="translate(0.500000 0.500000)" fill="#FFFFFF" fill-opacity="0"/>
	<g clip-path="url(#clip72_3741)">
		<path id="Vector" d="M2.18 2.38C-0.57 5.23 -1.53e-5 8.27 -1.53e-5 17.49C-1.53e-5 25.14 -1.34 32.82 5.65 34.63C7.83 35.19 27.17 35.19 29.35 34.62C32.26 33.87 34.63 31.51 34.95 27.39C35 26.82 35 8.17 34.95 7.58C34.61 3.19 31.91 0.67 28.35 0.16C27.54 0.04 27.37 0 23.19 -0.01C8.36 0 5.11 -0.66 2.18 2.38Z" fill="url(#paint_linear_72_3742_0)" fill-opacity="1.000000" fill-rule="nonzero"/>
		<path id="Vector" d="M17.49 4.57C12.19 4.57 7.17 4.1 5.25 9.03C4.45 11.07 4.57 13.71 4.57 17.5C4.57 20.82 4.46 23.94 5.25 25.96C7.16 30.89 12.23 30.42 17.48 30.42C22.55 30.42 27.78 30.95 29.72 25.96C30.52 23.9 30.4 21.3 30.4 17.5C30.4 12.45 30.68 9.19 28.23 6.74C25.75 4.26 22.4 4.57 17.48 4.57L17.49 4.57ZM16.33 6.9C27.37 6.88 28.78 5.66 28 22.71C27.73 28.75 23.13 28.09 17.49 28.09C7.2 28.09 6.9 27.79 6.9 17.49C6.9 7.07 7.72 6.91 16.33 6.9L16.33 6.9ZM24.38 9.05C23.53 9.05 22.83 9.74 22.83 10.6C22.83 11.45 23.53 12.15 24.38 12.15C25.24 12.15 25.93 11.45 25.93 10.6C25.93 9.74 25.24 9.05 24.38 9.05ZM17.49 10.86C13.82 10.86 10.85 13.83 10.85 17.5C10.85 21.16 13.82 24.13 17.49 24.13C21.15 24.13 24.12 21.16 24.12 17.5C24.12 13.83 21.15 10.86 17.49 10.86ZM17.49 13.19C23.18 13.19 23.19 21.8 17.49 21.8C11.8 21.8 11.79 13.19 17.49 13.19Z" fill="#FFFFFF" fill-opacity="1.000000" fill-rule="nonzero"/>
	</g>
</svg>
