<svg width="16.104980" height="22.000000" viewBox="0 0 16.105 22" fill="none" xmlns="http://www.w3.org/2000/svg" xmlns:xlink="http://www.w3.org/1999/xlink">
	<desc>
			Created with Pixso.
	</desc>
	<defs/>
	<path id="Vector" d="M16.09 19L14.92 6.12C14.89 5.77 14.59 5.5 14.23 5.5L12.17 5.5L12.17 4.12C12.17 3.01 11.74 1.98 10.96 1.2C10.2 0.43 9.14 0 8.05 0C5.77 0 3.92 1.85 3.92 4.12L3.92 5.5L1.86 5.5C1.5 5.5 1.21 5.77 1.18 6.12L0.01 19C-0.06 19.76 0.19 20.53 0.71 21.1C1.23 21.67 1.97 22 2.74 22L13.35 22C14.12 22 14.86 21.67 15.38 21.1C15.9 20.53 16.16 19.76 16.09 19ZM10.8 5.5L5.3 5.5L5.3 4.12C5.3 2.6 6.53 1.37 8.05 1.37C8.78 1.37 9.48 1.66 9.99 2.17C10.51 2.69 10.8 3.38 10.8 4.12L10.8 5.5Z" fill="#FFFFFF" fill-opacity="1.000000" fill-rule="nonzero"/>
</svg>
