<svg width="21.993896" height="22.000000" viewBox="0 0 21.9939 22" fill="none" xmlns="http://www.w3.org/2000/svg" xmlns:xlink="http://www.w3.org/1999/xlink">
	<desc>
			Created with Pixso.
	</desc>
	<defs>
		<clipPath id="clip21_198">
			<rect id="user 2" rx="0.000000" width="20.993896" height="21.000000" transform="translate(0.500000 0.500000)" fill="white" fill-opacity="0"/>
		</clipPath>
	</defs>
	<rect id="user 2" rx="0.000000" width="20.993896" height="21.000000" transform="translate(0.500000 0.500000)" fill="#FFFFFF" fill-opacity="0"/>
	<g clip-path="url(#clip21_198)">
		<path id="Vector" d="M10.84 10.59C12.29 10.59 13.55 10.07 14.58 9.04C15.61 8.01 16.13 6.75 16.13 5.29C16.13 3.84 15.61 2.58 14.58 1.55C13.55 0.52 12.29 0 10.84 0C9.38 0 8.12 0.52 7.09 1.55C6.06 2.58 5.54 3.84 5.54 5.29C5.54 6.75 6.06 8.01 7.09 9.04C8.12 10.07 9.38 10.59 10.84 10.59Z" fill="#FFFFFF" fill-opacity="1.000000" fill-rule="nonzero"/>
		<path id="Vector" d="M20.1 16.91C20.08 16.48 20.02 16.02 19.93 15.52C19.84 15.02 19.72 14.55 19.58 14.12C19.44 13.68 19.25 13.24 19.01 12.82C18.76 12.38 18.47 12 18.14 11.69C17.8 11.36 17.38 11.1 16.9 10.91C16.42 10.72 15.88 10.62 15.31 10.62C15.09 10.62 14.87 10.71 14.45 10.99C14.19 11.16 13.89 11.35 13.55 11.57C13.27 11.75 12.88 11.92 12.39 12.08C11.92 12.23 11.45 12.31 10.97 12.31C10.5 12.31 10.03 12.23 9.55 12.08C9.07 11.92 8.68 11.75 8.39 11.57C8.06 11.35 7.76 11.16 7.5 10.99C7.08 10.71 6.86 10.62 6.64 10.62C6.06 10.62 5.53 10.72 5.05 10.91C4.56 11.1 4.15 11.36 3.8 11.69C3.48 12 3.19 12.38 2.94 12.82C2.7 13.24 2.51 13.68 2.36 14.12C2.23 14.55 2.11 15.02 2.02 15.52C1.93 16.02 1.87 16.48 1.84 16.91C1.81 17.33 1.8 17.77 1.8 18.21C1.8 19.36 2.16 20.29 2.88 20.98C3.6 21.65 4.54 22 5.68 22L16.27 22C17.41 22 18.35 21.65 19.06 20.98C19.78 20.29 20.15 19.36 20.15 18.21C20.15 17.77 20.13 17.33 20.1 16.91Z" fill="#FFFFFF" fill-opacity="1.000000" fill-rule="nonzero"/>
	</g>
</svg>
