<svg width="27.443542" height="27.377930" viewBox="0 0 27.4435 27.3779" fill="none" xmlns="http://www.w3.org/2000/svg" xmlns:xlink="http://www.w3.org/1999/xlink">
	<desc>
			Created with Pixso.
	</desc>
	<defs/>
	<path id="Vector" d="M19.11 16.24C22.47 11.6 21.35 5.17 16.61 1.89C11.86 -1.4 5.29 -0.3 1.93 4.34C-1.43 8.98 -0.31 15.41 4.44 18.69C7.83 21.04 12.3 21.22 15.88 19.16L23.64 26.7C24.48 27.57 25.87 27.6 26.75 26.78C27.64 25.96 27.67 24.6 26.83 23.73C26.81 23.71 26.78 23.68 26.75 23.66L19.11 16.24ZM10.52 16.94C6.77 16.95 3.73 13.97 3.72 10.31C3.72 6.64 6.76 3.67 10.51 3.67C14.26 3.66 17.29 6.63 17.3 10.29C17.31 13.96 14.27 16.94 10.52 16.94C10.52 16.94 10.52 16.94 10.52 16.94Z" fill="#FFFFFF" fill-opacity="1.000000" fill-rule="nonzero"/>
</svg>
