<svg width="34.990540" height="35.000000" viewBox="0 0 34.9905 35" fill="none" xmlns="http://www.w3.org/2000/svg" xmlns:xlink="http://www.w3.org/1999/xlink">
	<desc>
			Created with Pixso.
	</desc>
	<defs/>
	<path id="XMLID 11" d="M34.99 17.5C34.99 27.16 27.15 35 17.49 35C7.83 35 0 27.16 0 17.5C0 7.83 7.83 0 17.49 0C27.15 0 34.99 7.83 34.99 17.5Z" fill="#4D76A1" fill-opacity="1.000000" fill-rule="evenodd"/>
	<path id="Vector" d="M16.83 25.17L18.2 25.17C18.2 25.17 18.62 25.12 18.83 24.9C19.02 24.69 19.02 24.29 19.02 24.29C19.02 24.29 18.99 22.45 19.85 22.18C20.69 21.91 21.77 23.96 22.92 24.75C23.79 25.34 24.45 25.21 24.45 25.21L27.51 25.17C27.51 25.17 29.12 25.07 28.36 23.81C28.3 23.71 27.91 22.88 26.08 21.17C24.15 19.38 24.41 19.67 26.73 16.58C28.14 14.7 28.7 13.55 28.53 13.06C28.36 12.59 27.32 12.72 27.32 12.72L23.87 12.74C23.87 12.74 23.61 12.7 23.42 12.82C23.24 12.93 23.12 13.19 23.12 13.19C23.12 13.19 22.57 14.64 21.84 15.88C20.3 18.49 19.69 18.63 19.44 18.47C18.85 18.09 19 16.95 19 16.14C19 13.61 19.38 12.55 18.25 12.28C17.87 12.19 17.6 12.13 16.64 12.12C15.4 12.11 14.36 12.12 13.77 12.41C13.38 12.6 13.07 13.03 13.26 13.06C13.49 13.09 14 13.2 14.28 13.57C14.63 14.05 14.62 15.13 14.62 15.13C14.62 15.13 14.82 18.12 14.15 18.49C13.68 18.74 13.04 18.22 11.67 15.85C10.97 14.64 10.44 13.29 10.44 13.29C10.44 13.29 10.33 13.04 10.15 12.91C9.93 12.75 9.62 12.7 9.62 12.7L6.34 12.72C6.34 12.72 5.85 12.73 5.66 12.94C5.5 13.14 5.65 13.53 5.65 13.53C5.65 13.53 8.22 19.54 11.13 22.57C13.8 25.35 16.83 25.17 16.83 25.17Z" fill="#FFFFFF" fill-opacity="1.000000" fill-rule="evenodd"/>
</svg>
