<svg width="34.990540" height="35.000000" viewBox="0 0 34.9905 35" fill="none" xmlns="http://www.w3.org/2000/svg" xmlns:xlink="http://www.w3.org/1999/xlink">
	<desc>
			Created with Pixso.
	</desc>
	<defs>
		<clipPath id="clip72_3744">
			<rect id="whatsapp 2" rx="0.000000" width="33.990540" height="34.000000" transform="translate(0.500000 0.500000)" fill="white" fill-opacity="0"/>
		</clipPath>
	</defs>
	<rect id="whatsapp 2" rx="0.000000" width="33.990540" height="34.000000" transform="translate(0.500000 0.500000)" fill="#FFFFFF" fill-opacity="0"/>
	<g clip-path="url(#clip72_3744)">
		<path id="Vector" d="M17.49 0L17.49 0C7.84 0 0 7.84 0 17.5C0 21.32 1.23 24.87 3.33 27.75L1.15 34.25L7.87 32.1C10.64 33.94 13.94 35 17.49 35C27.14 35 34.99 27.14 34.99 17.5C34.99 7.85 27.14 0 17.49 0Z" fill="#4CAF50" fill-opacity="1.000000" fill-rule="nonzero"/>
		<path id="Vector" d="M27.67 24.71C27.25 25.9 25.58 26.89 24.24 27.18C23.33 27.37 22.13 27.53 18.11 25.86C12.97 23.73 9.66 18.5 9.4 18.16C9.16 17.83 7.33 15.4 7.33 12.89C7.33 10.37 8.6 9.15 9.11 8.63C9.54 8.2 10.23 8 10.9 8C11.12 8 11.31 8.01 11.49 8.02C12 8.04 12.26 8.07 12.6 8.88C13.02 9.9 14.05 12.41 14.17 12.67C14.3 12.93 14.42 13.28 14.25 13.62C14.08 13.97 13.94 14.12 13.68 14.42C13.42 14.72 13.18 14.94 12.92 15.26C12.68 15.54 12.42 15.84 12.71 16.35C13.01 16.86 14.04 18.53 15.55 19.88C17.51 21.62 19.09 22.18 19.66 22.41C20.08 22.59 20.58 22.55 20.89 22.22C21.28 21.8 21.76 21.1 22.26 20.41C22.61 19.91 23.05 19.85 23.51 20.03C23.98 20.19 26.48 21.43 27 21.68C27.51 21.94 27.85 22.06 27.97 22.28C28.1 22.5 28.1 23.51 27.67 24.71Z" fill="#FAFAFA" fill-opacity="1.000000" fill-rule="nonzero"/>
	</g>
</svg>
